<svg width="230" height="24" viewBox="0 0 230 24" fill="none" xmlns="http://www.w3.org/2000/svg">
<path d="M21 5.25H3C2.59 5.25 2.25 4.91 2.25 4.5C2.25 4.09 2.59 3.75 3 3.75H21C21.41 3.75 21.75 4.09 21.75 4.5C21.75 4.91 21.41 5.25 21 5.25Z" fill="#2A2A2A"/>
<path d="M12.47 10.25H3C2.59 10.25 2.25 9.91 2.25 9.5C2.25 9.09 2.59 8.75 3 8.75H12.47C12.88 8.75 13.22 9.09 13.22 9.5C13.22 9.91 12.89 10.25 12.47 10.25Z" fill="#2A2A2A"/>
<path d="M21 15.25H3C2.59 15.25 2.25 14.91 2.25 14.5C2.25 14.09 2.59 13.75 3 13.75H21C21.41 13.75 21.75 14.09 21.75 14.5C21.75 14.91 21.41 15.25 21 15.25Z" fill="#2A2A2A"/>
<path d="M12.47 20.25H3C2.59 20.25 2.25 19.91 2.25 19.5C2.25 19.09 2.59 18.75 3 18.75H12.47C12.88 18.75 13.22 19.09 13.22 19.5C13.22 19.91 12.89 20.25 12.47 20.25Z" fill="#2A2A2A"/>
<path d="M135.24 18.192C131.832 18.192 129.624 15.824 129.624 12.16C129.624 8.528 131.912 6.112 135.336 6.112C138.104 6.112 140.168 7.728 140.568 10.24H138.408C138.008 8.88 136.84 8.08 135.288 8.08C133.128 8.08 131.768 9.648 131.768 12.144C131.768 14.624 133.144 16.224 135.288 16.224C136.872 16.224 138.088 15.392 138.472 14.096H140.6C140.152 16.56 138.008 18.192 135.24 18.192ZM147.133 10.064V11.872H146.413C145.005 11.872 144.125 12.624 144.125 14.16V18H142.173V10.112H144.013L144.125 11.264C144.461 10.48 145.213 9.952 146.269 9.952C146.541 9.952 146.813 9.984 147.133 10.064ZM151.748 18.208C149.396 18.208 147.748 16.496 147.748 14.048C147.748 11.568 149.364 9.856 151.684 9.856C154.052 9.856 155.556 11.44 155.556 13.904V14.496L149.604 14.512C149.748 15.904 150.484 16.608 151.78 16.608C152.852 16.608 153.556 16.192 153.78 15.44H155.588C155.252 17.168 153.812 18.208 151.748 18.208ZM151.7 11.456C150.548 11.456 149.844 12.08 149.652 13.264H153.62C153.62 12.176 152.868 11.456 151.7 11.456ZM159.416 18.208C157.736 18.208 156.712 17.232 156.712 15.744C156.712 14.288 157.768 13.376 159.64 13.232L162.008 13.056V12.88C162.008 11.808 161.368 11.376 160.376 11.376C159.224 11.376 158.584 11.856 158.584 12.688H156.92C156.92 10.976 158.328 9.856 160.472 9.856C162.6 9.856 163.912 11.008 163.912 13.2V18H162.2L162.056 16.832C161.72 17.648 160.648 18.208 159.416 18.208ZM160.056 16.736C161.256 16.736 162.024 16.016 162.024 14.8V14.384L160.376 14.512C159.16 14.624 158.696 15.024 158.696 15.664C158.696 16.384 159.176 16.736 160.056 16.736ZM168.433 18H166.481V11.728H164.961V10.096H166.481V7.632H168.433V10.096H169.969V11.728H168.433V18ZM174.664 18.208C172.312 18.208 170.664 16.496 170.664 14.048C170.664 11.568 172.28 9.856 174.6 9.856C176.968 9.856 178.472 11.44 178.472 13.904V14.496L172.52 14.512C172.664 15.904 173.4 16.608 174.696 16.608C175.768 16.608 176.472 16.192 176.696 15.44H178.504C178.168 17.168 176.728 18.208 174.664 18.208ZM174.616 11.456C173.464 11.456 172.76 12.08 172.568 13.264H176.536C176.536 12.176 175.784 11.456 174.616 11.456ZM186.747 18.208C185.067 18.208 184.043 17.232 184.043 15.744C184.043 14.288 185.099 13.376 186.971 13.232L189.339 13.056V12.88C189.339 11.808 188.699 11.376 187.707 11.376C186.555 11.376 185.915 11.856 185.915 12.688H184.251C184.251 10.976 185.659 9.856 187.803 9.856C189.931 9.856 191.243 11.008 191.243 13.2V18H189.531L189.387 16.832C189.051 17.648 187.979 18.208 186.747 18.208ZM187.387 16.736C188.587 16.736 189.355 16.016 189.355 14.8V14.384L187.707 14.512C186.491 14.624 186.027 15.024 186.027 15.664C186.027 16.384 186.507 16.736 187.387 16.736ZM202.017 18H197.809V6.304H201.905C205.361 6.304 207.745 8.688 207.745 12.176C207.745 15.616 205.409 18 202.017 18ZM201.713 8.192H199.857V16.112H201.825C204.161 16.112 205.585 14.608 205.585 12.176C205.585 9.696 204.129 8.192 201.713 8.192ZM210.365 8.512C209.693 8.512 209.165 7.984 209.165 7.328C209.165 6.672 209.693 6.16 210.365 6.16C211.005 6.16 211.533 6.672 211.533 7.328C211.533 7.984 211.005 8.512 210.365 8.512ZM209.389 18V10.096H211.341V18H209.389ZM212.773 15.6H214.629C214.645 16.288 215.157 16.72 216.053 16.72C216.965 16.72 217.461 16.352 217.461 15.776C217.461 15.376 217.253 15.088 216.549 14.928L215.125 14.592C213.701 14.272 213.013 13.6 213.013 12.336C213.013 10.784 214.325 9.856 216.149 9.856C217.925 9.856 219.125 10.88 219.141 12.416H217.285C217.269 11.744 216.821 11.312 216.069 11.312C215.301 11.312 214.853 11.664 214.853 12.256C214.853 12.704 215.205 12.992 215.877 13.152L217.301 13.488C218.629 13.792 219.301 14.4 219.301 15.616C219.301 17.216 217.941 18.208 215.989 18.208C214.021 18.208 212.773 17.152 212.773 15.6ZM222.764 18H220.812V6.096H222.78V11.12C223.276 10.352 224.204 9.856 225.34 9.856C227.292 9.856 228.316 11.088 228.316 13.136V18H226.364V13.6C226.364 12.272 225.708 11.632 224.716 11.632C223.484 11.632 222.764 12.496 222.764 13.68V18Z" fill="#2A2A2A"/>
</svg>
