<svg width="24" height="24" viewBox="0 0 24 24" fill="none" xmlns="http://www.w3.org/2000/svg">
<path d="M15.97 22.75H7.96997C4.54997 22.75 3.21997 21.42 3.21997 18V10C3.21997 9.59 3.55997 9.25 3.96997 9.25H19.97C20.38 9.25 20.72 9.59 20.72 10V18C20.72 21.42 19.39 22.75 15.97 22.75ZM4.71997 10.75V18C4.71997 20.58 5.38997 21.25 7.96997 21.25H15.97C18.55 21.25 19.22 20.58 19.22 18V10.75H4.71997Z" fill="#2A2A2A"/>
<path d="M19.5 10.75H4.5C2.75 10.75 1.75 9.75 1.75 8V7C1.75 5.25 2.75 4.25 4.5 4.25H19.5C21.2 4.25 22.25 5.3 22.25 7V8C22.25 9.7 21.2 10.75 19.5 10.75ZM4.5 5.75C3.59 5.75 3.25 6.09 3.25 7V8C3.25 8.91 3.59 9.25 4.5 9.25H19.5C20.38 9.25 20.75 8.88 20.75 8V7C20.75 6.12 20.38 5.75 19.5 5.75H4.5Z" fill="#2A2A2A"/>
<path d="M11.6401 5.75H6.12009C5.91009 5.75 5.71009 5.66001 5.57009 5.51C4.96009 4.84 4.98009 3.81 5.62009 3.17L7.04009 1.75C7.70009 1.09 8.79009 1.09 9.45009 1.75L12.1701 4.47C12.3801 4.68 12.4501 5.01 12.3301 5.29C12.2201 5.57 11.9501 5.75 11.6401 5.75ZM6.67009 4.25001H9.84009L8.39009 2.81C8.31009 2.73 8.18009 2.73 8.10009 2.81L6.68009 4.23001C6.68009 4.24001 6.67009 4.24001 6.67009 4.25001Z" fill="#2A2A2A"/>
<path d="M17.8701 5.75H12.3501C12.0501 5.75 11.7701 5.57 11.6601 5.29C11.5401 5.01 11.6101 4.69 11.8201 4.47L14.5401 1.75C15.2001 1.09 16.2901 1.09 16.9501 1.75L18.3701 3.17C19.0101 3.81 19.0401 4.84 18.4201 5.51C18.2801 5.66001 18.0801 5.75 17.8701 5.75ZM14.1701 4.25001H17.3401C17.3301 4.24001 17.3301 4.24001 17.3201 4.23001L15.9001 2.81C15.8201 2.73 15.6901 2.73 15.6101 2.81L14.1701 4.25001Z" fill="#2A2A2A"/>
<path d="M9.93994 16.9C9.65994 16.9 9.36994 16.83 9.10994 16.69C8.53994 16.38 8.18994 15.79 8.18994 15.15V10C8.18994 9.59 8.52994 9.25 8.93994 9.25H14.9799C15.3899 9.25 15.7299 9.59 15.7299 10V15.13C15.7299 15.78 15.3799 16.37 14.8099 16.67C14.2399 16.98 13.5499 16.94 13.0099 16.58L12.1199 15.98C12.0399 15.92 11.9299 15.92 11.8399 15.98L10.8999 16.6C10.6099 16.8 10.2699 16.9 9.93994 16.9ZM9.68994 10.75V15.14C9.68994 15.27 9.76994 15.33 9.81994 15.36C9.86994 15.39 9.96994 15.42 10.0799 15.35L11.0199 14.73C11.6099 14.34 12.3699 14.34 12.9499 14.73L13.8399 15.33C13.9499 15.4 14.0499 15.37 14.0999 15.34C14.1499 15.31 14.2299 15.25 14.2299 15.12V10.74H9.68994V10.75Z" fill="#2A2A2A"/>
</svg>
